# Blender 4.0.2
# www.blender.org
mtllib untitled.mtl
o Cube
v -0.920451 -0.114852 0.920451
v -0.920451 0.115884 0.920451
v -0.920451 -0.114852 -0.920451
v -0.920451 0.115884 -0.920451
v 0.920451 -0.114852 0.920451
v 0.920451 0.115884 0.920451
v 0.920451 -0.114852 -0.920451
v 0.920451 0.115884 -0.920451
v -0.939253 -0.102607 0.981198
v -0.895081 -0.106857 0.989754
v -0.981198 -0.102607 0.939253
v -0.989754 -0.106857 0.895081
v -0.939253 0.103639 0.981198
v -0.895081 0.107889 0.989754
v -0.981198 0.103639 0.939253
v -0.989754 0.107889 0.895081
v -0.981198 -0.102607 -0.939253
v -0.989754 -0.106857 -0.895081
v -0.939253 -0.102607 -0.981198
v -0.895081 -0.106857 -0.989754
v -0.939253 0.103639 -0.981198
v -0.895081 0.107889 -0.989754
v -0.981198 0.103639 -0.939253
v -0.989754 0.107889 -0.895081
v 0.981198 -0.102607 0.939253
v 0.989754 -0.106857 0.895081
v 0.939253 -0.102607 0.981198
v 0.895081 -0.106857 0.989754
v 0.939253 0.103639 0.981198
v 0.895081 0.107889 0.989754
v 0.981198 0.103639 0.939253
v 0.989754 0.107889 0.895081
v 0.939253 -0.102607 -0.981198
v 0.895081 -0.106857 -0.989754
v 0.981198 -0.102607 -0.939253
v 0.989754 -0.106857 -0.895081
v 0.981198 0.103639 -0.939253
v 0.989754 0.107889 -0.895081
v 0.939253 0.103639 -0.981198
v 0.895081 0.107889 -0.989754
vn -0.1146 -0.9934 -0.0000
vn -0.0000 1.0000 -0.0000
vn -0.1762 0.9684 0.1762
vn -0.0000 0.9934 -0.1146
vn -0.0000 0.9934 0.1146
vn 0.1146 -0.9934 -0.0000
vn 0.1146 0.9934 -0.0000
vn -0.1762 -0.9684 -0.1762
vn -0.0000 -0.9934 -0.1146
vn -0.1762 0.9684 -0.1762
vn 0.1762 0.9684 -0.1762
vn 0.1762 -0.9684 0.1762
vn 0.1762 -0.9684 -0.1762
vn 0.1762 0.9684 0.1762
vn -0.1762 -0.9684 0.1762
vn -0.1146 0.9934 -0.0000
vn -0.0000 -1.0000 -0.0000
vn -0.1177 -0.9861 0.1177
vn -0.1177 0.9861 0.1177
vn -0.1177 -0.9861 -0.1177
vn -0.1177 0.9861 -0.1177
vn 0.1177 -0.9861 0.1177
vn 0.1177 0.9861 0.1177
vn 0.1177 -0.9861 -0.1177
vn 0.1177 0.9861 -0.1177
vn -0.0000 -0.9934 0.1146
vt 0.375000 0.240056
vt 0.375000 0.009944
vt 0.383663 0.013115
vt 0.383663 0.236885
vt 0.634944 0.509944
vt 0.865056 0.509944
vt 0.865056 0.740056
vt 0.634944 0.740056
vt 0.617394 0.000224
vt 0.625000 0.009944
vt 0.617394 0.012058
vt 0.625000 0.259944
vt 0.625000 0.490056
vt 0.616337 0.486885
vt 0.616337 0.263115
vt 0.625000 0.759944
vt 0.625000 0.990056
vt 0.616337 0.986885
vt 0.616337 0.763115
vt 0.365056 0.740056
vt 0.365056 0.509944
vt 0.382382 0.513115
vt 0.382382 0.736885
vt 0.617618 0.736885
vt 0.617618 0.513115
vt 0.382606 0.237942
vt 0.382606 0.249776
vt 0.375000 0.490056
vt 0.375000 0.259944
vt 0.383663 0.263115
vt 0.383663 0.486885
vt 0.625000 0.240056
vt 0.617394 0.249776
vt 0.617394 0.237942
vt 0.617394 0.499776
vt 0.617394 0.487942
vt 0.375000 0.759944
vt 0.382606 0.750224
vt 0.382606 0.762058
vt 0.382606 0.487942
vt 0.382606 0.499776
vt 0.617394 0.762058
vt 0.617394 0.750224
vt 0.382606 0.000224
vt 0.382606 0.012058
vt 0.616337 0.236885
vt 0.616337 0.013115
vt 0.134944 0.509944
vt 0.134944 0.740056
vt 0.388267 0.002350
vt 0.388267 0.007593
vt 0.611733 0.007593
vt 0.611733 0.002350
vt 0.388267 0.244757
vt 0.388267 0.255243
vt 0.384944 0.259944
vt 0.384944 0.240056
vt 0.611733 0.255243
vt 0.611733 0.244757
vt 0.615056 0.240056
vt 0.615056 0.259944
vt 0.388267 0.744757
vt 0.388267 0.755243
vt 0.384944 0.759944
vt 0.384944 0.740056
vt 0.611733 0.755243
vt 0.611733 0.744757
vt 0.615056 0.740056
vt 0.615056 0.759944
vt 0.388267 0.494757
vt 0.388267 0.505243
vt 0.384944 0.509944
vt 0.384944 0.490056
vt 0.611733 0.505243
vt 0.611733 0.494757
vt 0.615056 0.490056
vt 0.615056 0.509944
vt 0.375000 0.990056
vt 0.383663 0.763115
vt 0.383663 0.986885
s 0
usemtl Material.001
f 3/1/1 1/2/1 12/3/1 18/4/1
f 8/5/2 4/6/2 2/7/2 6/8/2
f 14/9/3 2/10/3 16/11/3
f 4/12/4 8/13/4 40/14/4 22/15/4
f 6/16/5 2/17/5 14/18/5 30/19/5
f 5/20/6 7/21/6 36/22/6 26/23/6
f 8/5/7 6/8/7 32/24/7 38/25/7
f 3/1/8 18/26/8 20/27/8
f 7/28/9 3/29/9 20/30/9 34/31/9
f 4/32/10 22/33/10 24/34/10
f 8/13/11 38/35/11 40/36/11
f 5/37/12 26/38/12 28/39/12
f 7/28/13 34/40/13 36/41/13
f 6/16/14 30/42/14 32/43/14
f 1/2/15 10/44/15 12/45/15
f 2/10/16 4/32/16 24/46/16 16/47/16
f 3/48/17 7/21/17 5/20/17 1/49/17
f 9/50/18 11/51/18 12/45/18 10/44/18
f 15/52/19 13/53/19 14/9/19 16/11/19
f 17/54/20 19/55/20 20/56/20 18/57/20
f 21/58/21 23/59/21 24/60/21 22/61/21
f 25/62/22 27/63/22 28/64/22 26/65/22
f 29/66/23 31/67/23 32/68/23 30/69/23
f 33/70/24 35/71/24 36/72/24 34/73/24
f 37/74/25 39/75/25 40/76/25 38/77/25
f 1/78/26 5/37/26 28/79/26 10/80/26
o Cube.001
v -0.939253 -0.103123 0.981198
v -0.895081 -0.107373 0.989754
v -0.981198 -0.103123 0.939253
v -0.989754 -0.107373 0.895081
v -0.939253 0.103123 0.981198
v -0.895081 0.107373 0.989754
v -0.981198 0.103123 0.939253
v -0.989754 0.107373 0.895081
v -0.981198 -0.103123 -0.939253
v -0.989754 -0.107373 -0.895081
v -0.939253 -0.103123 -0.981198
v -0.895081 -0.107373 -0.989754
v -0.939253 0.103123 -0.981198
v -0.895081 0.107373 -0.989754
v -0.981198 0.103123 -0.939253
v -0.989754 0.107373 -0.895081
v 0.981198 -0.103123 0.939253
v 0.989754 -0.107373 0.895081
v 0.939253 -0.103123 0.981198
v 0.895081 -0.107373 0.989754
v 0.939253 0.103123 0.981198
v 0.895081 0.107373 0.989754
v 0.981198 0.103123 0.939253
v 0.989754 0.107373 0.895081
v 0.939253 -0.103123 -0.981198
v 0.895081 -0.107373 -0.989754
v 0.981198 -0.103123 -0.939253
v 0.989754 -0.107373 -0.895081
v 0.981198 0.103123 -0.939253
v 0.989754 0.107373 -0.895081
v 0.939253 0.103123 -0.981198
v 0.895081 0.107373 -0.989754
vn 0.7071 -0.0000 0.7071
vn -0.7071 -0.0000 0.7071
vn -0.7071 -0.0000 -0.7071
vn 1.0000 -0.0000 -0.0000
vn 0.7071 -0.0000 -0.7071
vn -1.0000 -0.0000 -0.0000
vn -0.0000 -0.0000 1.0000
vn -0.0000 -0.0000 -1.0000
vn -0.1902 -0.0000 0.9818
vn -0.9818 -0.0000 0.1902
vn -0.1902 -0.0000 -0.9818
vn -0.9818 -0.0000 -0.1902
vn 0.9818 -0.0000 -0.1902
vn 0.1902 -0.0000 -0.9818
vn 0.1902 -0.0000 0.9818
vn 0.9818 -0.0000 0.1902
vt 0.762421 0.453939
vt 0.762134 0.533060
vt 0.751629 0.533058
vt 0.751916 0.453937
vt 0.007865 0.532908
vt 0.008152 0.453787
vt 0.013405 0.453788
vt 0.013118 0.532909
vt 0.261507 0.453838
vt 0.261220 0.532959
vt 0.250715 0.532957
vt 0.251002 0.453836
vt 0.519557 0.534642
vt 0.519856 0.452260
vt 0.744035 0.452305
vt 0.743736 0.534687
vt 0.511964 0.453889
vt 0.511677 0.533010
vt 0.501172 0.533008
vt 0.501459 0.453887
vt 0.018643 0.534541
vt 0.018942 0.452159
vt 0.243122 0.452204
vt 0.242822 0.534586
vt 0.770014 0.534692
vt 0.770313 0.452311
vt 0.994492 0.452356
vt 0.994193 0.534737
vt 0.269100 0.534591
vt 0.269399 0.452210
vt 0.493578 0.452255
vt 0.493279 0.534636
vt 0.005506 0.534084
vt 0.005802 0.452610
s 0
usemtl Material.002
f 61/81/27 59/82/27 57/83/27 63/84/27
f 41/85/28 45/86/28 47/87/28 43/88/28
f 53/89/29 51/90/29 49/91/29 55/92/29
f 68/93/30 70/94/30 64/95/30 58/96/30
f 69/97/31 67/98/31 65/99/31 71/100/31
f 44/101/32 48/102/32 56/103/32 50/104/32
f 60/105/33 62/106/33 46/107/33 42/108/33
f 52/109/34 54/110/34 72/111/34 66/112/34
f 42/113/35 46/114/35 45/86/35 41/85/35
f 48/102/36 44/101/36 43/88/36 47/87/36
f 54/110/37 52/109/37 51/90/37 53/89/37
f 50/104/38 56/103/38 55/92/38 49/91/38
f 70/94/39 68/93/39 67/98/39 69/97/39
f 66/112/40 72/111/40 71/100/40 65/99/40
f 62/106/41 60/105/41 59/82/41 61/81/41
f 58/96/42 64/95/42 63/84/42 57/83/42
o Cylinder
v 0.000000 -0.018755 -0.923135
v 0.000000 0.185489 -0.923135
v 0.180095 -0.018755 -0.905397
v 0.180095 0.185489 -0.905397
v 0.353269 -0.018755 -0.852866
v 0.353269 0.185489 -0.852866
v 0.512866 -0.018755 -0.767559
v 0.512866 0.185489 -0.767559
v 0.652755 -0.018755 -0.652755
v 0.652755 0.185489 -0.652755
v 0.767559 -0.018755 -0.512866
v 0.767559 0.185489 -0.512866
v 0.852866 -0.018755 -0.353269
v 0.852866 0.185489 -0.353269
v 0.905397 -0.018755 -0.180095
v 0.905397 0.185489 -0.180095
v 0.923135 -0.018755 0.000000
v 0.923135 0.185489 0.000000
v 0.905397 -0.018755 0.180095
v 0.905397 0.185489 0.180095
v 0.852866 -0.018755 0.353269
v 0.852866 0.185489 0.353269
v 0.767559 -0.018755 0.512866
v 0.767559 0.185489 0.512866
v 0.652755 -0.018755 0.652755
v 0.652755 0.185489 0.652755
v 0.512866 -0.018755 0.767559
v 0.512866 0.185489 0.767559
v 0.353269 -0.018755 0.852866
v 0.353269 0.185489 0.852866
v 0.180095 -0.018755 0.905397
v 0.180095 0.185489 0.905397
v 0.000000 -0.018755 0.923135
v 0.000000 0.185489 0.923135
v -0.180095 -0.018755 0.905397
v -0.180095 0.185489 0.905397
v -0.353269 -0.018755 0.852866
v -0.353269 0.185489 0.852866
v -0.512866 -0.018755 0.767559
v -0.512866 0.185489 0.767559
v -0.652755 -0.018755 0.652755
v -0.652755 0.185489 0.652755
v -0.767559 -0.018755 0.512866
v -0.767559 0.185489 0.512866
v -0.852866 -0.018755 0.353269
v -0.852866 0.185489 0.353269
v -0.905397 -0.018755 0.180095
v -0.905397 0.185489 0.180095
v -0.923135 -0.018755 0.000000
v -0.923135 0.185489 0.000000
v -0.905397 -0.018755 -0.180095
v -0.905397 0.185489 -0.180095
v -0.852866 -0.018755 -0.353269
v -0.852866 0.185489 -0.353269
v -0.767559 -0.018755 -0.512866
v -0.767559 0.185489 -0.512866
v -0.652755 -0.018755 -0.652755
v -0.652755 0.185489 -0.652755
v -0.512866 -0.018755 -0.767559
v -0.512866 0.185489 -0.767559
v -0.353269 -0.018755 -0.852866
v -0.353269 0.185489 -0.852866
v -0.180095 -0.018755 -0.905397
v -0.180095 0.185489 -0.905397
vn 0.0980 -0.0000 -0.9952
vn 0.2903 -0.0000 -0.9569
vn 0.4714 -0.0000 -0.8819
vn 0.6344 -0.0000 -0.7730
vn 0.7730 -0.0000 -0.6344
vn 0.8819 -0.0000 -0.4714
vn 0.9569 -0.0000 -0.2903
vn 0.9952 -0.0000 -0.0980
vn 0.9952 -0.0000 0.0980
vn 0.9569 -0.0000 0.2903
vn 0.8819 -0.0000 0.4714
vn 0.7730 -0.0000 0.6344
vn 0.6344 -0.0000 0.7730
vn 0.4714 -0.0000 0.8819
vn 0.2903 -0.0000 0.9569
vn 0.0980 -0.0000 0.9952
vn -0.0980 -0.0000 0.9952
vn -0.2903 -0.0000 0.9569
vn -0.4714 -0.0000 0.8819
vn -0.6344 -0.0000 0.7730
vn -0.7730 -0.0000 0.6344
vn -0.8819 -0.0000 0.4714
vn -0.9569 -0.0000 0.2903
vn -0.9952 -0.0000 0.0980
vn -0.9952 -0.0000 -0.0980
vn -0.9569 -0.0000 -0.2903
vn -0.8819 -0.0000 -0.4714
vn -0.7730 -0.0000 -0.6344
vn -0.6344 -0.0000 -0.7730
vn -0.4714 -0.0000 -0.8819
vn -0.0000 1.0000 -0.0000
vn -0.2903 -0.0000 -0.9569
vn -0.0980 -0.0000 -0.9952
vn -0.0000 -1.0000 -0.0000
vt 1.000000 0.500000
vt 1.000000 1.000000
vt 0.968750 1.000000
vt 0.968750 0.500000
vt 0.937500 1.000000
vt 0.937500 0.500000
vt 0.906250 1.000000
vt 0.906250 0.500000
vt 0.875000 1.000000
vt 0.875000 0.500000
vt 0.843750 1.000000
vt 0.843750 0.500000
vt 0.812500 1.000000
vt 0.812500 0.500000
vt 0.781250 1.000000
vt 0.781250 0.500000
vt 0.750000 1.000000
vt 0.750000 0.500000
vt 0.718750 1.000000
vt 0.718750 0.500000
vt 0.687500 1.000000
vt 0.687500 0.500000
vt 0.656250 1.000000
vt 0.656250 0.500000
vt 0.625000 1.000000
vt 0.625000 0.500000
vt 0.593750 1.000000
vt 0.593750 0.500000
vt 0.562500 1.000000
vt 0.562500 0.500000
vt 0.531250 1.000000
vt 0.531250 0.500000
vt 0.500000 1.000000
vt 0.500000 0.500000
vt 0.468750 1.000000
vt 0.468750 0.500000
vt 0.437500 1.000000
vt 0.437500 0.500000
vt 0.406250 1.000000
vt 0.406250 0.500000
vt 0.375000 1.000000
vt 0.375000 0.500000
vt 0.343750 1.000000
vt 0.343750 0.500000
vt 0.312500 1.000000
vt 0.312500 0.500000
vt 0.281250 1.000000
vt 0.281250 0.500000
vt 0.250000 1.000000
vt 0.250000 0.500000
vt 0.218750 1.000000
vt 0.218750 0.500000
vt 0.187500 1.000000
vt 0.187500 0.500000
vt 0.156250 1.000000
vt 0.156250 0.500000
vt 0.125000 1.000000
vt 0.125000 0.500000
vt 0.093750 1.000000
vt 0.093750 0.500000
vt 0.062500 1.000000
vt 0.062500 0.500000
vt 0.296822 0.485388
vt 0.250000 0.490000
vt 0.203178 0.485388
vt 0.158156 0.471731
vt 0.116663 0.449553
vt 0.080294 0.419706
vt 0.050447 0.383337
vt 0.028269 0.341844
vt 0.014612 0.296822
vt 0.010000 0.250000
vt 0.014612 0.203178
vt 0.028269 0.158156
vt 0.050447 0.116663
vt 0.080294 0.080294
vt 0.116663 0.050447
vt 0.158156 0.028269
vt 0.203178 0.014612
vt 0.250000 0.010000
vt 0.296822 0.014612
vt 0.341844 0.028269
vt 0.383337 0.050447
vt 0.419706 0.080294
vt 0.449553 0.116663
vt 0.471731 0.158156
vt 0.485388 0.203178
vt 0.490000 0.250000
vt 0.485388 0.296822
vt 0.471731 0.341844
vt 0.449553 0.383337
vt 0.419706 0.419706
vt 0.383337 0.449553
vt 0.341844 0.471731
vt 0.031250 1.000000
vt 0.031250 0.500000
vt 0.000000 1.000000
vt 0.000000 0.500000
vt 0.750000 0.490000
vt 0.796822 0.485388
vt 0.841844 0.471731
vt 0.883337 0.449553
vt 0.919706 0.419706
vt 0.949553 0.383337
vt 0.971731 0.341844
vt 0.985388 0.296822
vt 0.990000 0.250000
vt 0.985388 0.203178
vt 0.971731 0.158156
vt 0.949553 0.116663
vt 0.919706 0.080294
vt 0.883337 0.050447
vt 0.841844 0.028269
vt 0.796822 0.014612
vt 0.750000 0.010000
vt 0.703178 0.014612
vt 0.658156 0.028269
vt 0.616663 0.050447
vt 0.580294 0.080294
vt 0.550447 0.116663
vt 0.528269 0.158156
vt 0.514612 0.203178
vt 0.510000 0.250000
vt 0.514612 0.296822
vt 0.528269 0.341844
vt 0.550447 0.383337
vt 0.580294 0.419706
vt 0.616663 0.449553
vt 0.658156 0.471731
vt 0.703178 0.485388
s 0
usemtl Material.004
f 73/115/43 74/116/43 76/117/43 75/118/43
f 75/118/44 76/117/44 78/119/44 77/120/44
f 77/120/45 78/119/45 80/121/45 79/122/45
f 79/122/46 80/121/46 82/123/46 81/124/46
f 81/124/47 82/123/47 84/125/47 83/126/47
f 83/126/48 84/125/48 86/127/48 85/128/48
f 85/128/49 86/127/49 88/129/49 87/130/49
f 87/130/50 88/129/50 90/131/50 89/132/50
f 89/132/51 90/131/51 92/133/51 91/134/51
f 91/134/52 92/133/52 94/135/52 93/136/52
f 93/136/53 94/135/53 96/137/53 95/138/53
f 95/138/54 96/137/54 98/139/54 97/140/54
f 97/140/55 98/139/55 100/141/55 99/142/55
f 99/142/56 100/141/56 102/143/56 101/144/56
f 101/144/57 102/143/57 104/145/57 103/146/57
f 103/146/58 104/145/58 106/147/58 105/148/58
f 105/148/59 106/147/59 108/149/59 107/150/59
f 107/150/60 108/149/60 110/151/60 109/152/60
f 109/152/61 110/151/61 112/153/61 111/154/61
f 111/154/62 112/153/62 114/155/62 113/156/62
f 113/156/63 114/155/63 116/157/63 115/158/63
f 115/158/64 116/157/64 118/159/64 117/160/64
f 117/160/65 118/159/65 120/161/65 119/162/65
f 119/162/66 120/161/66 122/163/66 121/164/66
f 121/164/67 122/163/67 124/165/67 123/166/67
f 123/166/68 124/165/68 126/167/68 125/168/68
f 125/168/69 126/167/69 128/169/69 127/170/69
f 127/170/70 128/169/70 130/171/70 129/172/70
f 129/172/71 130/171/71 132/173/71 131/174/71
f 131/174/72 132/173/72 134/175/72 133/176/72
f 76/177/73 74/178/73 136/179/73 134/180/73 132/181/73 130/182/73 128/183/73 126/184/73 124/185/73 122/186/73 120/187/73 118/188/73 116/189/73 114/190/73 112/191/73 110/192/73 108/193/73 106/194/73 104/195/73 102/196/73 100/197/73 98/198/73 96/199/73 94/200/73 92/201/73 90/202/73 88/203/73 86/204/73 84/205/73 82/206/73 80/207/73 78/208/73
f 133/176/74 134/175/74 136/209/74 135/210/74
f 135/210/75 136/209/75 74/211/75 73/212/75
f 73/213/76 75/214/76 77/215/76 79/216/76 81/217/76 83/218/76 85/219/76 87/220/76 89/221/76 91/222/76 93/223/76 95/224/76 97/225/76 99/226/76 101/227/76 103/228/76 105/229/76 107/230/76 109/231/76 111/232/76 113/233/76 115/234/76 117/235/76 119/236/76 121/237/76 123/238/76 125/239/76 127/240/76 129/241/76 131/242/76 133/243/76 135/244/76
o Icosphere
v 0.000000 0.094011 0.000000
v 0.723607 0.210533 0.525725
v -0.276388 0.210533 0.850649
v -0.894426 0.210534 0.000000
v -0.276388 0.210533 -0.850649
v 0.723607 0.210533 -0.525725
v 0.276388 0.399074 0.850649
v -0.723607 0.399073 0.525725
v -0.723607 0.399073 -0.525725
v 0.276388 0.399074 -0.850649
v 0.894426 0.399073 0.000000
v 0.000000 0.515595 0.000000
v -0.162456 0.125492 0.499995
v 0.425323 0.125492 0.309011
v 0.262869 0.193982 0.809012
v 0.850648 0.193982 0.000000
v 0.425323 0.125492 -0.309011
v -0.525730 0.125493 0.000000
v -0.688189 0.193982 0.499997
v -0.162456 0.125492 -0.499995
v -0.688189 0.193982 -0.499997
v 0.262869 0.193982 -0.809012
v 0.951058 0.304803 0.309013
v 0.951058 0.304803 -0.309013
v 0.000000 0.304803 1.000000
v 0.587786 0.304803 0.809017
v -0.951058 0.304803 0.309013
v -0.587786 0.304803 0.809017
v -0.587786 0.304803 -0.809017
v -0.951058 0.304803 -0.309013
v 0.587786 0.304803 -0.809017
v 0.000000 0.304803 -1.000000
v 0.688189 0.415624 0.499997
v -0.262869 0.415624 0.809012
v -0.850648 0.415624 0.000000
v -0.262869 0.415624 -0.809012
v 0.688189 0.415624 -0.499997
v 0.162456 0.484114 0.499995
v 0.525730 0.484114 0.000000
v -0.425323 0.484114 0.309011
v -0.425323 0.484114 -0.309011
v 0.162456 0.484114 -0.499995
vn 0.0228 -0.9973 0.0702
vn 0.2170 -0.9726 0.0830
vn -0.0597 -0.9973 0.0434
vn -0.0597 -0.9973 -0.0434
vn 0.0228 -0.9973 -0.0702
vn 0.4946 -0.8567 0.1465
vn 0.0135 -0.8567 0.5157
vn -0.4863 -0.8567 0.1722
vn -0.3141 -0.8567 -0.4093
vn 0.2922 -0.8567 -0.4252
vn 0.6935 -0.5150 0.5039
vn -0.2649 -0.5150 0.8153
vn -0.8572 -0.5150 -0.0000
vn -0.2649 -0.5150 -0.8153
vn 0.6935 -0.5150 -0.5039
vn 0.1267 0.9726 0.1947
vn -0.1460 0.9726 0.1807
vn -0.2170 0.9726 -0.0830
vn 0.0119 0.9726 -0.2320
vn 0.2243 0.9726 -0.0603
vn 0.0597 0.9973 -0.0434
vn 0.1286 0.9873 -0.0934
vn 0.1267 0.9726 -0.1947
vn -0.0228 0.9973 -0.0702
vn -0.0491 0.9873 -0.1512
vn -0.1460 0.9726 -0.1807
vn -0.0738 0.9973 -0.0000
vn -0.1590 0.9873 -0.0000
vn -0.2170 0.9726 0.0830
vn -0.0228 0.9973 0.0702
vn -0.0491 0.9873 0.1512
vn 0.0119 0.9726 0.2320
vn 0.0597 0.9973 0.0434
vn 0.1286 0.9873 0.0934
vn 0.2243 0.9726 0.0603
vn 0.4863 0.8567 -0.1722
vn 0.5995 0.6714 -0.4356
vn 0.3141 0.8567 -0.4093
vn -0.0135 0.8567 -0.5157
vn -0.2290 0.6714 -0.7048
vn -0.2922 0.8567 -0.4252
vn -0.4946 0.8567 -0.1465
vn -0.7411 0.6714 -0.0000
vn -0.4946 0.8567 0.1465
vn -0.2922 0.8567 0.4252
vn -0.2290 0.6714 0.7048
vn -0.0135 0.8567 0.5157
vn 0.3141 0.8567 0.4093
vn 0.5995 0.6714 0.4356
vn 0.4863 0.8567 0.1722
vn 0.2649 0.5150 -0.8153
vn 0.2290 -0.6714 -0.7048
vn 0.0135 -0.8567 -0.5157
vn -0.6935 0.5150 -0.5039
vn -0.5995 -0.6714 -0.4356
vn -0.4863 -0.8567 -0.1722
vn -0.6935 0.5150 0.5039
vn -0.5995 -0.6714 0.4356
vn -0.3141 -0.8567 0.4093
vn 0.2649 0.5150 0.8153
vn 0.2290 -0.6714 0.7048
vn 0.2922 -0.8567 0.4252
vn 0.8572 0.5150 -0.0000
vn 0.7411 -0.6714 -0.0000
vn 0.4946 -0.8567 -0.1465
vn 0.1460 -0.9726 -0.1807
vn 0.0491 -0.9873 -0.1512
vn -0.0119 -0.9726 -0.2320
vn -0.1267 -0.9726 -0.1947
vn -0.1286 -0.9873 -0.0934
vn -0.2243 -0.9726 -0.0603
vn -0.2243 -0.9726 0.0603
vn -0.1286 -0.9873 0.0934
vn -0.1267 -0.9726 0.1947
vn 0.2170 -0.9726 -0.0830
vn 0.1590 -0.9873 -0.0000
vn 0.0738 -0.9973 -0.0000
vn -0.0119 -0.9726 0.2320
vn 0.0491 -0.9873 0.1512
vn 0.1460 -0.9726 0.1807
vt 0.181819 0.000000
vt 0.227273 0.078731
vt 0.136365 0.078731
vt 0.272728 0.157461
vt 0.318182 0.078731
vt 0.363637 0.157461
vt 0.909091 0.000000
vt 0.954545 0.078731
vt 0.863636 0.078731
vt 0.727273 0.000000
vt 0.772727 0.078731
vt 0.681818 0.078731
vt 0.545455 0.000000
vt 0.590909 0.078731
vt 0.500000 0.078731
vt 0.318182 0.236191
vt 0.090910 0.157461
vt 0.181819 0.157461
vt 0.136365 0.236191
vt 0.818182 0.157461
vt 0.909091 0.157461
vt 0.863636 0.236191
vt 0.636364 0.157461
vt 0.727273 0.157461
vt 0.681818 0.236191
vt 0.454546 0.157461
vt 0.545455 0.157461
vt 0.500000 0.236191
vt 0.227273 0.236191
vt 0.045455 0.236191
vt 0.772727 0.236191
vt 0.590909 0.236191
vt 0.409092 0.236191
vt 0.181819 0.314921
vt 0.272728 0.314921
vt 0.227273 0.393651
vt 0.000000 0.314921
vt 0.090910 0.314921
vt 0.045455 0.393651
vt 0.727273 0.314921
vt 0.818182 0.314921
vt 0.772727 0.393651
vt 0.545455 0.314921
vt 0.636364 0.314921
vt 0.590909 0.393651
vt 0.363637 0.314921
vt 0.454546 0.314921
vt 0.409092 0.393651
vt 0.500000 0.393651
vt 0.454546 0.472382
vt 0.681818 0.393651
vt 0.636364 0.472382
vt 0.863636 0.393651
vt 0.818182 0.472382
vt 0.909091 0.314921
vt 0.136365 0.393651
vt 0.090910 0.472382
vt 0.318182 0.393651
vt 0.272728 0.472382
vt 0.954545 0.236191
vt 1.000000 0.157461
vt 0.409092 0.078731
vt 0.363637 0.000000
s 0
usemtl Material.003
f 137/245/77 150/246/77 149/247/77
f 138/248/78 150/249/78 152/250/78
f 137/251/79 149/252/79 154/253/79
f 137/254/80 154/255/80 156/256/80
f 137/257/81 156/258/81 153/259/81
f 138/248/82 152/250/82 159/260/82
f 139/261/83 151/262/83 161/263/83
f 140/264/84 155/265/84 163/266/84
f 141/267/85 157/268/85 165/269/85
f 142/270/86 158/271/86 167/272/86
f 138/248/87 159/260/87 162/273/87
f 139/261/88 161/263/88 164/274/88
f 140/264/89 163/266/89 166/275/89
f 141/267/90 165/269/90 168/276/90
f 142/270/91 167/272/91 160/277/91
f 143/278/92 169/279/92 174/280/92
f 144/281/93 170/282/93 176/283/93
f 145/284/94 171/285/94 177/286/94
f 146/287/95 172/288/95 178/289/95
f 147/290/96 173/291/96 175/292/96
f 175/292/97 178/293/97 148/294/97
f 175/292/98 173/291/98 178/293/98
f 173/291/99 146/287/99 178/293/99
f 178/289/100 177/295/100 148/296/100
f 178/289/101 172/288/101 177/295/101
f 172/288/102 145/284/102 177/295/102
f 177/286/103 176/297/103 148/298/103
f 177/286/104 171/285/104 176/297/104
f 171/285/105 144/299/105 176/297/105
f 176/283/106 174/300/106 148/301/106
f 176/283/107 170/282/107 174/300/107
f 170/282/108 143/278/108 174/300/108
f 174/280/109 175/302/109 148/303/109
f 174/280/110 169/279/110 175/302/110
f 169/279/111 147/290/111 175/302/111
f 160/277/112 173/291/112 147/290/112
f 160/277/113 167/272/113 173/291/113
f 167/272/114 146/287/114 173/291/114
f 168/276/115 172/288/115 146/287/115
f 168/276/116 165/269/116 172/288/116
f 165/269/117 145/284/117 172/288/117
f 166/275/118 171/285/118 145/284/118
f 166/275/119 163/266/119 171/285/119
f 163/266/120 144/299/120 171/285/120
f 164/274/121 170/282/121 144/281/121
f 164/274/122 161/263/122 170/282/122
f 161/263/123 143/278/123 170/282/123
f 162/273/124 169/279/124 143/278/124
f 162/273/125 159/260/125 169/279/125
f 159/260/126 147/290/126 169/279/126
f 167/272/127 168/276/127 146/287/127
f 167/272/128 158/271/128 168/276/128
f 158/271/129 141/267/129 168/276/129
f 165/269/130 166/275/130 145/284/130
f 165/269/131 157/268/131 166/275/131
f 157/268/132 140/264/132 166/275/132
f 163/266/133 164/304/133 144/299/133
f 163/266/134 155/265/134 164/304/134
f 155/265/135 139/305/135 164/304/135
f 161/263/136 162/273/136 143/278/136
f 161/263/137 151/262/137 162/273/137
f 151/262/138 138/248/138 162/273/138
f 159/260/139 160/277/139 147/290/139
f 159/260/140 152/250/140 160/277/140
f 152/250/141 142/270/141 160/277/141
f 153/259/142 158/271/142 142/270/142
f 153/259/143 156/258/143 158/271/143
f 156/258/144 141/267/144 158/271/144
f 156/256/145 157/268/145 141/267/145
f 156/256/146 154/255/146 157/268/146
f 154/255/147 140/264/147 157/268/147
f 154/253/148 155/265/148 140/264/148
f 154/253/149 149/252/149 155/265/149
f 149/252/150 139/305/150 155/265/150
f 152/250/151 153/306/151 142/270/151
f 152/250/152 150/249/152 153/306/152
f 150/249/153 137/307/153 153/306/153
f 149/247/154 151/262/154 139/261/154
f 149/247/155 150/246/155 151/262/155
f 150/246/156 138/248/156 151/262/156
